# xmcd CD database file
#
# Track frame offsets:
#	150
#	13979
#	48158
#	84460
#	126525
#	149355
#
# Disc length: 2279 seconds
#
# Revision: 1
# Processed by: cddbd v1.5.1PL0 Copyright (c) Steve Scherf et al.
# Submitted via: CDex 1.51
#
DISCID=5108e506
DTITLE=Mr.Josua presents Espiritu(aka Chicane) - In Praise Of The Sun
DYEAR=2003
DGENRE=House
TTITLE0=In Praise Of The Sun (Radio Edit)
TTITLE1=In Praise Of The Sun (Mr.Josua Original Vocal Mix)
TTITLE2=In Praise Of The Sun (Mr.josua Divino Club Mix)
TTITLE3=In Praise Of The Sun (Sono Frequent Traveller Mix)
TTITLE4=In Praise Of The Sun (Chilled Brasi;ia Mix)
TTITLE5=In Praise Of The Sun (Sonos Distant Reprise)
EXTD=YEAR: 2003
EXTT0=
EXTT1=
EXTT2=
EXTT3=
EXTT4=
EXTT5=
PLAYORDER=
